# Blender 4.0.2
# www.blender.org
mtllib BowlingLane.mtl
o Bowling_Lane
v -0.550000 0.000000 20.068317
v 0.550000 0.000000 20.068317
v -0.550000 0.000000 -1.000000
v 0.550000 0.000000 -1.000000
v -0.550000 0.000000 0.000000
v 0.550000 0.000000 0.000000
v -0.550000 0.000000 0.000000
v 0.550000 0.000000 0.000000
vn -0.0000 1.0000 -0.0000
vt 1.000000 0.500000
vt 0.000000 1.000000
vt 0.000000 0.500000
vt 1.000000 0.000000
vt 0.000000 0.000000
vt 1.000000 1.000000
s 0
usemtl Wood
f 6/1/1 3/2/1 5/3/1
f 7/3/1 6/1/1 5/3/1
f 2/4/1 7/3/1 1/5/1
f 6/1/1 4/6/1 3/2/1
f 7/3/1 8/1/1 6/1/1
f 2/4/1 8/1/1 7/3/1
