# Blender 4.0.2
# www.blender.org
mtllib Television.mtl
o Television
v -0.584140 1.479546 1.637156
v -0.584140 2.948550 1.637156
v -1.424226 1.479546 1.513289
v -1.424226 2.948550 1.513289
v 0.584140 1.479546 1.637156
v 0.584140 2.948550 1.637156
v 1.424226 1.479546 1.513289
v 1.424226 2.948550 1.513289
v -1.354630 2.902196 1.523550
v -1.354628 1.528208 1.523550
v 1.312452 1.526978 1.529770
v 1.312450 2.903369 1.529770
vn -0.1459 -0.0000 0.9893
vn 0.0024 -0.2128 -0.9771
vn 0.1459 -0.0000 0.9893
vn -0.0000 -0.0000 1.0000
vn -0.0000 -1.0000 -0.0000
vn -0.0000 1.0000 -0.0000
vn 0.0023 -0.0000 -1.0000
vn 0.1459 -0.0000 -0.9893
vn -0.1459 -0.0000 -0.9893
vn -0.0000 0.3282 -0.9446
vn -0.0000 -0.3427 -0.9394
vn 0.0024 0.2031 -0.9792
vt 0.625000 0.000000
vt 0.375000 0.250000
vt 0.375000 0.000000
vt 0.875000 0.500000
vt 0.625000 0.500000
vt 0.375000 0.750000
vt 0.375000 0.500000
vt 0.625000 0.750000
vt 0.375000 1.000000
vt 0.125000 0.750000
vt 0.125000 0.500000
vt 0.625000 0.250000
vt 0.625000 1.000000
vt 0.875000 0.750000
s 0
usemtl Television
f 2/1/1 3/2/1 1/3/1
f 4/4/2 12/5/2 9/4/2
f 8/5/3 5/6/3 7/7/3
f 6/8/4 1/9/4 5/6/4
f 7/7/5 1/10/5 3/11/5
f 4/4/6 6/8/6 8/5/6
f 4/12/8 10/2/8 3/2/8
f 8/5/9 11/7/9 12/5/9
f 3/11/10 11/7/10 7/7/10
f 2/1/1 4/12/1 3/2/1
f 4/4/11 8/5/11 12/5/11
f 8/5/3 6/8/3 5/6/3
f 6/8/4 2/13/4 1/9/4
f 7/7/5 5/6/5 1/10/5
f 4/4/6 2/14/6 6/8/6
f 4/12/8 9/12/8 10/2/8
f 8/5/9 7/7/9 11/7/9
f 3/11/12 10/11/12 11/7/12
usemtl Screen
f 10/2/7 12/5/7 11/7/7
f 10/2/7 9/12/7 12/5/7
